<?xml version="1.0" encoding="UTF-8" standalone="no"?><svg xmlns="http://www.w3.org/2000/svg" xmlns:xlink="http://www.w3.org/1999/xlink" fill="#1b2432" height="88" preserveAspectRatio="xMidYMid meet" version="1" viewBox="19.8 19.8 88.4 88.4" width="88" zoomAndPan="magnify"><g id="change1_1"><path d="M76.709,19.791H51.291c-17.369,0-31.5,14.131-31.5,31.5v25.419c0,17.369,14.131,31.5,31.5,31.5h25.419 c17.369,0,31.5-14.131,31.5-31.5V51.291C108.209,33.921,94.079,19.791,76.709,19.791z M103.209,76.709 c0,14.612-11.888,26.5-26.5,26.5H51.291c-14.612,0-26.5-11.888-26.5-26.5V51.291c0-14.612,11.888-26.5,26.5-26.5h25.419 c14.612,0,26.5,11.888,26.5,26.5V76.709z"/><path d="M88.104,30.332c-4.162,0-7.547,3.386-7.547,7.547c0,1.224,0.299,2.376,0.818,3.399C76.553,37.583,70.53,35.379,64,35.379 c-15.781,0-28.621,12.839-28.621,28.621S48.219,92.621,64,92.621S92.621,79.781,92.621,64c0-7.349-2.787-14.058-7.356-19.132 c0.878,0.358,1.835,0.559,2.84,0.559c4.162,0,7.548-3.386,7.548-7.548C95.652,33.718,92.267,30.332,88.104,30.332z M64,87.621 c-13.024,0-23.621-10.596-23.621-23.621S50.976,40.379,64,40.379S87.621,50.976,87.621,64S77.024,87.621,64,87.621z M88.104,40.427 c-1.405,0-2.547-1.143-2.547-2.548s1.143-2.547,2.547-2.547s2.548,1.143,2.548,2.547S89.509,40.427,88.104,40.427z"/></g></svg>