<?xml version="1.0" encoding="UTF-8" standalone="no"?><svg xmlns="http://www.w3.org/2000/svg" xmlns:xlink="http://www.w3.org/1999/xlink" fill="#000000" height="595.3" preserveAspectRatio="xMidYMid meet" version="1" viewBox="0.0 0.0 595.3 595.3" width="595.3" zoomAndPan="magnify"><g id="change1_1"><path d="M 467.191406 307.640625 L 381.5625 393.269531 C 377.65625 397.175781 377.65625 403.507812 381.5625 407.414062 C 383.515625 409.363281 386.074219 410.34375 388.632812 410.34375 C 391.191406 410.34375 393.753906 409.363281 395.703125 407.414062 L 498.40625 304.710938 C 498.429688 304.6875 498.445312 304.664062 498.46875 304.640625 C 498.675781 304.429688 498.878906 304.210938 499.066406 303.980469 C 499.171875 303.855469 499.257812 303.722656 499.355469 303.59375 C 499.453125 303.460938 499.558594 303.332031 499.648438 303.195312 C 499.75 303.046875 499.835938 302.890625 499.925781 302.738281 C 500.003906 302.609375 500.082031 302.488281 500.152344 302.355469 C 500.234375 302.203125 500.304688 302.042969 500.378906 301.882812 C 500.445312 301.746094 500.515625 301.609375 500.570312 301.46875 C 500.636719 301.316406 500.6875 301.15625 500.742188 301.003906 C 500.796875 300.851562 500.855469 300.699219 500.902344 300.546875 C 500.949219 300.386719 500.984375 300.226562 501.027344 300.066406 C 501.066406 299.910156 501.109375 299.757812 501.140625 299.597656 C 501.179688 299.410156 501.199219 299.222656 501.226562 299.035156 C 501.246094 298.898438 501.269531 298.765625 501.285156 298.628906 C 501.351562 297.972656 501.351562 297.308594 501.285156 296.652344 C 501.269531 296.511719 501.246094 296.378906 501.226562 296.242188 C 501.199219 296.054688 501.179688 295.867188 501.140625 295.683594 C 501.109375 295.523438 501.066406 295.367188 501.023438 295.210938 C 500.984375 295.050781 500.949219 294.890625 500.902344 294.734375 C 500.855469 294.578125 500.796875 294.425781 500.742188 294.273438 C 500.6875 294.117188 500.636719 293.964844 500.574219 293.8125 C 500.511719 293.667969 500.441406 293.53125 500.375 293.390625 C 500.304688 293.234375 500.234375 293.078125 500.152344 292.925781 C 500.082031 292.789062 499.996094 292.660156 499.921875 292.53125 C 499.832031 292.382812 499.746094 292.230469 499.648438 292.085938 C 499.550781 291.941406 499.445312 291.804688 499.339844 291.664062 C 499.25 291.542969 499.164062 291.417969 499.066406 291.300781 C 498.859375 291.046875 498.636719 290.800781 498.40625 290.566406 L 395.703125 187.867188 C 391.800781 183.960938 385.46875 183.960938 381.5625 187.867188 C 377.65625 191.773438 377.65625 198.105469 381.5625 202.007812 L 467.191406 287.640625 L 103.945312 287.640625 C 98.421875 287.640625 93.945312 292.117188 93.945312 297.640625 C 93.945312 303.164062 98.421875 307.640625 103.945312 307.640625 L 467.191406 307.640625" fill="#1b2432"/><path d="M 20.003906 297.640625 C 20.003906 260.148438 27.339844 223.792969 41.8125 189.578125 C 55.792969 156.519531 75.816406 126.824219 101.320312 101.320312 C 126.824219 75.816406 156.519531 55.792969 189.578125 41.8125 C 223.792969 27.339844 260.148438 20.003906 297.640625 20.003906 C 335.128906 20.003906 371.488281 27.339844 405.703125 41.8125 C 438.761719 55.792969 468.453125 75.816406 493.960938 101.320312 C 519.464844 126.824219 539.484375 156.519531 553.46875 189.578125 C 567.941406 223.792969 575.277344 260.148438 575.277344 297.640625 C 575.277344 335.128906 567.941406 371.488281 553.46875 405.703125 C 539.484375 438.761719 519.464844 468.453125 493.960938 493.960938 C 468.453125 519.464844 438.761719 539.484375 405.703125 553.46875 C 371.488281 567.941406 335.128906 575.277344 297.640625 575.277344 C 260.148438 575.277344 223.792969 567.941406 189.578125 553.46875 C 156.519531 539.484375 126.824219 519.464844 101.320312 493.960938 C 75.816406 468.453125 55.792969 438.761719 41.8125 405.703125 C 27.339844 371.488281 20.003906 335.128906 20.003906 297.640625 Z M 297.640625 595.277344 C 462.019531 595.277344 595.277344 462.019531 595.277344 297.640625 C 595.277344 133.257812 462.019531 0.00390625 297.640625 0.00390625 C 133.257812 0.00390625 0.00390625 133.257812 0.00390625 297.640625 C 0.00390625 462.019531 133.257812 595.277344 297.640625 595.277344" fill="#1b2432"/></g></svg>