<?xml version="1.0" encoding="UTF-8" standalone="no"?><svg xmlns="http://www.w3.org/2000/svg" xmlns:xlink="http://www.w3.org/1999/xlink" fill="#000000" height="44.5" preserveAspectRatio="xMidYMid meet" version="1" viewBox="0.0 0.0 44.0 44.5" width="44" zoomAndPan="magnify"><g fill="#1b2432" id="change1_1"><path d="M 35.746094 26.925781 C 35.449219 26.628906 33.910156 25.074219 33.609375 24.828125 C 33.371094 24.632812 32.976562 24.496094 32.734375 24.496094 C 32.675781 24.496094 32.628906 24.523438 32.570312 24.53125 C 32.53125 24.535156 32.496094 24.519531 32.457031 24.527344 C 30.832031 24.863281 29.023438 24.785156 27.367188 24.339844 C 26.734375 19.492188 23.582031 15.4375 19.261719 13.539062 C 19.371094 7.574219 24.25 2.75 30.246094 2.75 C 36.3125 2.75 41.246094 7.683594 41.246094 13.75 C 41.246094 20.46875 36.296875 22.089844 35.824219 23.636719 C 35.796875 23.722656 35.78125 23.808594 35.769531 23.902344 C 35.765625 23.945312 35.746094 23.984375 35.746094 24.03125 Z M 13.75 37.125 C 12.980469 37.125 12.238281 37.050781 11.539062 36.90625 C 11.019531 36.800781 10.769531 36.9375 10.476562 37.144531 C 10.410156 37.195312 10.332031 37.226562 10.273438 37.28125 L 8.25 39.304688 C 8.25 38.882812 8.261719 36.675781 8.222656 36.28125 C 8.207031 36.097656 8.144531 35.90625 8.070312 35.769531 C 8 35.632812 7.875 35.476562 7.730469 35.359375 C 7.695312 35.332031 7.675781 35.292969 7.640625 35.269531 C 4.578125 33.222656 2.75 29.804688 2.75 26.128906 C 2.75 20.0625 7.683594 15.128906 13.75 15.128906 C 19.8125 15.128906 24.746094 20.0625 24.746094 26.128906 C 24.746094 32.191406 19.8125 37.125 13.75 37.125 Z M 43.996094 13.75 C 43.996094 6.167969 37.828125 0 30.246094 0 C 23.03125 0 17.105469 5.59375 16.554688 12.667969 C 15.648438 12.480469 14.710938 12.378906 13.75 12.378906 C 6.167969 12.378906 0 18.546875 0 26.128906 C 0 30.46875 2.054688 34.5 5.5 37.089844 L 5.5 42.625 C 5.5 43.851562 6.988281 44.457031 7.847656 43.597656 L 11.730469 39.710938 C 12.386719 39.808594 13.058594 39.875 13.75 39.875 C 20.96875 39.875 26.890625 34.28125 27.441406 27.199219 C 28.355469 27.390625 29.289062 27.496094 30.246094 27.496094 C 30.933594 27.496094 31.605469 27.433594 32.265625 27.335938 L 36.144531 31.214844 C 36.410156 31.476562 36.761719 31.617188 37.117188 31.617188 C 37.296875 31.617188 37.472656 31.585938 37.644531 31.515625 C 38.160156 31.300781 38.496094 30.796875 38.496094 30.242188 L 38.496094 24.710938 C 41.941406 22.121094 43.992188 18.089844 43.992188 13.75 L 43.996094 13.75"/><path d="M 29.265625 12.769531 C 28.730469 13.335938 28.742188 14.171875 29.265625 14.722656 C 29.84375 15.273438 30.710938 15.234375 31.21875 14.722656 C 31.746094 14.195312 31.753906 13.304688 31.21875 12.769531 C 30.707031 12.261719 29.804688 12.261719 29.265625 12.769531"/><path d="M 23.78125 12.769531 C 23.21875 13.332031 23.246094 14.191406 23.765625 14.710938 C 24.328125 15.273438 25.203125 15.238281 25.71875 14.722656 C 26.246094 14.195312 26.253906 13.304688 25.71875 12.769531 C 25.210938 12.261719 24.289062 12.261719 23.78125 12.769531"/><path d="M 36.71875 12.769531 C 36.195312 12.261719 35.289062 12.261719 34.777344 12.769531 C 34.222656 13.328125 34.238281 14.1875 34.765625 14.710938 C 35.304688 15.25 36.148438 15.261719 36.71875 14.722656 C 37.246094 14.195312 37.25 13.304688 36.71875 12.769531"/><path d="M 12.78125 25.160156 C 12.246094 25.664062 12.222656 26.523438 12.769531 27.097656 C 13.28125 27.609375 14.171875 27.648438 14.722656 27.097656 C 15.238281 26.582031 15.265625 25.703125 14.722656 25.160156 C 14.210938 24.636719 13.277344 24.652344 12.78125 25.160156"/><path d="M 18.28125 25.160156 C 17.71875 25.691406 17.746094 26.59375 18.28125 27.097656 C 18.789062 27.636719 19.726562 27.621094 20.21875 27.097656 C 20.777344 26.539062 20.726562 25.640625 20.21875 25.160156 C 19.710938 24.636719 18.777344 24.652344 18.28125 25.160156"/><path d="M 7.28125 25.160156 C 6.71875 25.691406 6.75 26.59375 7.28125 27.097656 C 7.789062 27.636719 8.726562 27.621094 9.222656 27.097656 C 9.78125 26.539062 9.726562 25.640625 9.222656 25.160156 C 8.710938 24.636719 7.777344 24.652344 7.28125 25.160156"/></g></svg>